# xmcd
#
# Track frame offsets: 
#        150
#        25249
#        55504
#        84236
#        103174
#        147773
#        174885
#        199774
#        253991
#        284378
#
# Disc length: 4251 seconds
#
# Revision: 2
# Processed by: cddbd v1.5.2PL0 Copyright (c) Steve Scherf et al.
# Submitted via: ExactAudioCopy v0.99pb4
#
DISCID=8310990a
DTITLE=Various Artist - Priorité à la Techno CD 2
DYEAR=1997
DGENRE=Techno
TTITLE0=Green Velvet - Answering Machine
TTITLE1=Franckie Hnuckles - Your Love
TTITLE2=Todd Terry - Something Goin'On (Loop Da Loop Uptown Mix)
TTITLE3=Reese and Santonio - Rock to the Beat
TTITLE4=Lil Louis - French Kiss
TTITLE5=Channel 5 - This is a Test
TTITLE6=XBuzz - Overload
TTITLE7=Aphropitch - Wallflower (Felix Da House Cat)
TTITLE8=Takkyu - Ishino - Ghost in the Shell
TTITLE9=Basement Jaxx - Fly Life (CAJMERE Green Velvet Mix)
EXTD=
EXTT0=
EXTT1=
EXTT2=
EXTT3=
EXTT4=
EXTT5=
EXTT6=
EXTT7=
EXTT8=
EXTT9=
PLAYORDER=
